<svg xmlns="http://www.w3.org/2000/svg" viewBox="0 0 240 240" role="img" aria-label="Local illustrative artwork for Parable of the Hidden Treasure"><defs>
      <radialGradient id="b" cx="36%" cy="23%"><stop stop-color="#ffffff" stop-opacity=".27"/><stop offset=".58" stop-color="#3f604c"/><stop offset="1" stop-color="#17243d"/></radialGradient>
      <linearGradient id="r" x1="0" y1="0" x2="0" y2="1"><stop stop-color="#dff7c9"/><stop offset="1" stop-color="#55715f"/></linearGradient>
      <linearGradient id="g" x1="0" y1="0" x2="1" y2="1"><stop stop-color="#ffffff" stop-opacity=".25"/><stop offset="1" stop-color="#ffffff" stop-opacity="0"/></linearGradient>
    </defs><circle cx="120" cy="120" r="112" fill="url(#b)" stroke="#dff7c9" stroke-width="7"/><circle cx="120" cy="120" r="105" fill="none" stroke="rgba(255,255,255,.18)" stroke-width="1.5"/><ellipse cx="86" cy="62" rx="32" ry="18" fill="url(#g)" transform="rotate(-22 86 62)"/><path d="M60 165q60-54 120 0v24H60z" fill="#315c3d"/><path d="M120 163v-67" stroke="#f1e6ad" stroke-width="7" stroke-linecap="round"/><path d="M120 121c-19-19-34-18-46-6 18 3 31 12 46 25M120 111c18-20 34-19 47-7-18 4-32 13-47 26" fill="#9dd67a"/><circle cx="120" cy="79" r="18" fill="#f0d27d"/><path d="M80 56h80" stroke="#fff1bf" stroke-width="5" stroke-linecap="round"/><rect x="61" y="194" width="118" height="27" rx="13" fill="rgba(0,0,0,.22)"/><text x="120" y="214" text-anchor="middle" font-family="system-ui,sans-serif" font-size="22" font-weight="800" fill="#fff">PT</text></svg>
