<svg xmlns="http://www.w3.org/2000/svg" viewBox="0 0 240 240" role="img" aria-label="Local illustrative artwork for Venerable Pimen the Faster of the Kiev Caves"><defs>
      <radialGradient id="b" cx="36%" cy="23%"><stop stop-color="#ffffff" stop-opacity=".27"/><stop offset=".58" stop-color="#6f4834"/><stop offset="1" stop-color="#17243d"/></radialGradient>
      <linearGradient id="r" x1="0" y1="0" x2="0" y2="1"><stop stop-color="#ffe3c0"/><stop offset="1" stop-color="#614130"/></linearGradient>
      <linearGradient id="g" x1="0" y1="0" x2="1" y2="1"><stop stop-color="#ffffff" stop-opacity=".25"/><stop offset="1" stop-color="#ffffff" stop-opacity="0"/></linearGradient>
    </defs><circle cx="120" cy="120" r="112" fill="url(#b)" stroke="#ffe3c0" stroke-width="7"/><circle cx="120" cy="120" r="105" fill="none" stroke="rgba(255,255,255,.18)" stroke-width="1.5"/><ellipse cx="86" cy="62" rx="32" ry="18" fill="url(#g)" transform="rotate(-22 86 62)"/><circle cx="120" cy="76" r="47" fill="none" stroke="#ead0b0" stroke-width="7" opacity=".96"/><circle cx="120" cy="88" r="24" fill="#d8ac84"/><path d="M96 71q24-20 48 0v12q-10-10-24-10t-24 10z" fill="#4b2f24" opacity=".93"/><path d="M102 100q18 22 36 0" fill="none" stroke="#774f33" stroke-width="5" stroke-linecap="round"/><path d="M58 205c7-56 30-84 62-84s55 28 62 84" fill="#614130"/><path d="M83 122c11 12 23 19 37 19s26-7 37-19l6 21-43 30-43-30z" fill="#735748" opacity=".45"/><path d="M88 84q32-52 64 0l-4 22h-56z" fill="#1d1d21" opacity=".92"/><path d="M160 146c0 18-8 34-8 34" stroke="#d5b06a" stroke-width="4" fill="none"/><circle cx="160" cy="145" r="6" fill="#d5b06a"/><path d="M87 142c12 16 12 32 0 48" stroke="#f1d78e" stroke-width="4" fill="none"/><rect x="61" y="194" width="118" height="27" rx="13" fill="rgba(0,0,0,.22)"/><text x="120" y="214" text-anchor="middle" font-family="system-ui,sans-serif" font-size="22" font-weight="800" fill="#fff">PC</text></svg>
